<?xml version="1.0" encoding="UTF-8"?>
<!DOCTYPE svg PUBLIC "-//W3C//DTD SVG 1.1//EN" "http://www.w3.org/Graphics/SVG/1.1/DTD/svg11.dtd">
<svg xmlns="http://www.w3.org/2000/svg" version="1.1" width="200px" height="200px" style="shape-rendering:geometricPrecision; text-rendering:geometricPrecision; image-rendering:optimizeQuality; fill-rule:evenodd; clip-rule:evenodd" xmlns:xlink="http://www.w3.org/1999/xlink">
<g><path style="opacity:0.996" fill="#000000" d="M 40.5,7.5 C 85.5,7.5 130.5,7.5 175.5,7.5C 175.5,56.8333 175.5,106.167 175.5,155.5C 132.832,155.333 90.1654,155.5 47.5,156C 36.3715,156.784 31.5382,162.617 33,173.5C 36.0518,179.282 40.8852,182.449 47.5,183C 90.1654,183.5 132.832,183.667 175.5,183.5C 175.5,186.167 175.5,188.833 175.5,191.5C 130.499,191.667 85.4988,191.5 40.5,191C 32.073,188.905 26.573,183.739 24,175.5C 23.3333,125.167 23.3333,74.8333 24,24.5C 27.0191,16.3156 32.5191,10.649 40.5,7.5 Z M 57.5,39.5 C 86.8352,39.3334 116.169,39.5 145.5,40C 146,40.5 146.5,41 147,41.5C 147.667,48.1667 147.667,54.8333 147,61.5C 146.5,62 146,62.5 145.5,63C 116.167,63.6667 86.8333,63.6667 57.5,63C 57,62.5 56.5,62 56,61.5C 55.3333,54.8333 55.3333,48.1667 56,41.5C 56.7172,40.9558 57.2172,40.2891 57.5,39.5 Z"/></g>
</svg>
